<svg xmlns="http://www.w3.org/2000/svg" width="140" height="140" id="linkedin"><path fill="#187fb8" d="M10.886 49.701h24.268v76.897H10.886z"></path><path fill="#187fb8" d="M10.886 49.701h24.268v76.897H10.886z"></path><path fill="#0e78d8" d="M10.886 49.701h24.268v76.897H10.886z"></path><path fill="#187fb8" d="M101.462 48.967c-13.907 0-22.614 7.525-24.226 12.804v-12.07H49.969c.354 6.408 0 76.897 0 76.897h27.268V84.986c0-2.31-.11-4.622.589-6.284 1.876-4.624 5.901-9.418 13.144-9.418 9.467 0 13.773 7.108 13.773 17.521v39.792h27.517V83.842c-.001-23.818-13.551-34.875-30.798-34.875z"></path><path fill="#0e78d8" d="M101.462 48.967c-13.907 0-22.614 7.525-24.226 12.804v-12.07H49.969c.354 6.408 0 76.897 0 76.897h27.268V84.986c0-2.31-.11-4.622.589-6.284 1.876-4.624 5.901-9.418 13.144-9.418 9.467 0 13.773 7.108 13.773 17.521v39.792h27.517V83.842c-.001-23.818-13.551-34.875-30.798-34.875z"></path><path fill="#2ed3ff" d="M22.568 13.402c-8.966 0-14.827 5.756-14.827 13.351 0 7.453 5.696 13.329 14.48 13.329h.178c9.123 0 14.802-5.899 14.802-13.348-.174-7.59-5.679-13.332-14.633-13.332z"></path><path fill="#00a4dd" d="M7.741 26.753c0 7.453 5.696 13.329 14.48 13.329h.178c9.123 0 14.802-5.899 14.802-13.348"></path><g><path fill="none" stroke="#33363a" stroke-linecap="round" stroke-linejoin="round" stroke-miterlimit="10" stroke-width="3" d="M10.886 49.701h24.268v76.897H10.886z"></path><path fill="none" stroke="#33363a" stroke-linecap="round" stroke-linejoin="round" stroke-miterlimit="10" stroke-width="3" d="M10.886 49.701h24.268v76.897H10.886z"></path><path fill="none" stroke="#33363a" stroke-linecap="round" stroke-linejoin="round" stroke-miterlimit="10" stroke-width="3" d="M10.886 49.701h24.268v76.897H10.886zM101.462 48.967c-13.907 0-22.614 7.525-24.226 12.804v-12.07H49.969c.354 6.408 0 76.897 0 76.897h27.268V84.986c0-2.31-.11-4.622.589-6.284 1.876-4.624 5.901-9.418 13.144-9.418 9.467 0 13.773 7.108 13.773 17.521v39.792h27.517V83.842c-.001-23.818-13.551-34.875-30.798-34.875z"></path><path fill="none" stroke="#33363a" stroke-linecap="round" stroke-linejoin="round" stroke-miterlimit="10" stroke-width="3" d="M101.462 48.967c-13.907 0-22.614 7.525-24.226 12.804v-12.07H49.969c.354 6.408 0 76.897 0 76.897h27.268V84.986c0-2.31-.11-4.622.589-6.284 1.876-4.624 5.901-9.418 13.144-9.418 9.467 0 13.773 7.108 13.773 17.521v39.792h27.517V83.842c-.001-23.818-13.551-34.875-30.798-34.875zM22.568 13.402c-8.966 0-14.827 5.756-14.827 13.351 0 7.453 5.696 13.329 14.48 13.329h.178c9.123 0 14.802-5.899 14.802-13.348-.174-7.59-5.679-13.332-14.633-13.332z"></path></g><path fill="none" stroke="#33363a" stroke-linecap="round" stroke-linejoin="round" stroke-miterlimit="10" stroke-width="3" d="m91.118 26.332-.005-3.451M91.118 15.383l-.005.159M64.395 31.838l-2.44-2.438M56.646 24.095l.12.116M117.837 31.84l2.44-2.443M125.581 24.095l-.114.113"></path></svg>