<svg xmlns="http://www.w3.org/2000/svg" fill-rule="evenodd" stroke-linejoin="round" stroke-miterlimit="2" clip-rule="evenodd" viewBox="0 0 64 64" id="twitter"><path fill="none" d="M0 0h64v64H0z"></path><path fill="#57b7eb" d="m53.505 20.769.002.231v1.5c0 17.661-14.339 32-32 32a31.835 31.835 0 0 1-17.189-5.01 31.824 31.824 0 0 0 16.401-5.016c-4.563-.296-8.435-3.148-10.196-7.138a12.013 12.013 0 0 0 4.984-.215c-5.173-1.333-9-6.034-9-11.621 0-.085.001-.169.003-.253a11.924 11.924 0 0 0 5.591 2.171A12.492 12.492 0 0 1 6.507 17c0-2.128.533-4.133 1.473-5.889 5.049 7.073 13.139 11.826 22.353 12.342.174.01.174-1.624.174-2.453 0-6.347 5.153-11.5 11.5-11.5a11.47 11.47 0 0 1 8.588 3.855 14.95 14.95 0 0 0 8.033-3.788 15.045 15.045 0 0 1-5.076 6.897 14.893 14.893 0 0 0 6.129-1.79 15.083 15.083 0 0 1-6.176 6.095Z"></path><path fill="#4891d3" d="M53.215 26.843C51.093 42.453 37.696 54.5 21.507 54.5a31.834 31.834 0 0 1-17.188-5.01 31.88 31.88 0 0 0 8.893-1.491A29.908 29.908 0 0 0 24 50c14.203 0 26.114-9.891 29.215-23.157Z"></path><path d="m29.96 22.929.005-.056c.043-.537.042-1.362.042-1.873 0-6.623 5.377-12 12-12 3.464 0 6.587 1.471 8.778 3.822a14.462 14.462 0 0 0 7.506-3.624.5.5 0 0 1 .808.538 15.536 15.536 0 0 1-3.942 6.022 14.375 14.375 0 0 0 4.284-1.523.5.5 0 0 1 .679.679 15.588 15.588 0 0 1-6.113 6.151V22.5c0 17.937-14.563 32.5-32.5 32.5a32.33 32.33 0 0 1-17.458-5.089.5.5 0 0 1 .257-.921 31.319 31.319 0 0 0 14.927-4.197 12.529 12.529 0 0 1-9.167-7.255.501.501 0 0 1 .539-.695 11.578 11.578 0 0 0 2.9.114C9.093 35.026 6.007 30.62 6.007 25.5l.003-.264a.5.5 0 0 1 .792-.395 11.454 11.454 0 0 0 3.33 1.655A12.965 12.965 0 0 1 6.007 17c0-2.214.555-4.299 1.533-6.125a.5.5 0 0 1 .847-.054c4.89 6.849 12.682 11.487 21.573 12.108Zm27.394-11.704a15.41 15.41 0 0 1-6.689 2.626.5.5 0 0 1-.443-.163A10.974 10.974 0 0 0 42.007 10c-6.071 0-11 4.929-11 11 0 .533-.001 1.392-.045 1.952-.026.321-.079.565-.131.673-.136.283-.359.337-.526.327-9.076-.508-17.081-5.06-22.24-11.881A11.935 11.935 0 0 0 7.007 17c0 4.173 2.135 7.852 5.371 10.002a.5.5 0 0 1-.335.913 12.422 12.422 0 0 1-5.015-1.726c.298 5.049 3.86 9.225 8.604 10.448a.5.5 0 0 1 0 .968 12.482 12.482 0 0 1-4.252.345c1.831 3.392 5.316 5.762 9.372 6.026a.5.5 0 0 1 .237.92 32.306 32.306 0 0 1-15.011 5.011A31.331 31.331 0 0 0 21.507 54c17.385 0 31.5-14.115 31.5-31.5V21l-.002-.221a.499.499 0 0 1 .266-.452 14.602 14.602 0 0 0 5.084-4.47c-1.489.608-3.092.99-4.769 1.106a.5.5 0 0 1-.336-.898 14.57 14.57 0 0 0 4.104-4.84Z"></path></svg>